#!OML:ASF I:\golf\golf\golf 2\Subject 1\2002-09-07\Subject1.ASF
:FULLY-SPECIFIED
:DEGREES
232
root -0.211439 17.7774 -4.76147 47.316 24.9563 11.1871
lowerback 25.9325 2.9979 2.52366
upperback 12.4179 5.08314 9.6552
thorax -1.22032 2.40226 7.83835
lowerneck -16.3308 -8.80268 -2.49921
upperneck 15.786 -10.4322 -4.55246
head 7.41144 -5.50321 -2.22545
rclavicle -5.08889e-014 3.33958e-014
rhumerus 34.7183 10.5066 -42.2551
rradius 26.5406
rwrist -8.22781
rhand -23.5578 10.2394
rfingers 7.12502
rthumb 2.90438 -19.7205
lclavicle -5.08889e-014 3.33958e-014
lhumerus -19.732 -21.3541 98.5067
lradius 66.0111
lwrist 14.1415
lhand -11.27 30.406
lfingers 7.12502
lthumb 14.7604 59.8604
rfemur -71.3207 -7.74163 16.8097
rtibia 37.1637
rfoot -4.02781 -9.39447
rtoes 13.6331
lfemur -42.2694 -1.03274 -19.1106
ltibia 26.7659
lfoot -11.7069 -4.43428
ltoes -13.851
233
root -0.238892 17.7713 -4.71421 47.8947 25.0183 11.3359
lowerback 26.3039 3.08658 2.71543
upperback 12.5886 5.25284 9.72488
thorax -1.21419 2.48596 7.75368
lowerneck -16.2422 -8.92892 -2.32285
upperneck 15.0282 -10.6808 -4.54291
head 7.13299 -5.61497 -2.2404
rclavicle -3.18055e-015 -4.6118e-014
rhumerus 35.6034 10.3156 -40.7524
rradius 26.8931
rwrist -8.64052
rhand -24.3708 10.2253
rfingers 7.12502
rthumb 2.11929 -19.7439
lclavicle -3.18055e-015 -4.6118e-014
lhumerus -19.825 -21.8276 98.6531
lradius 67.0886
lwrist 14.1838
lhand -11.2747 30.4374
lfingers 7.12502
lthumb 14.7558 59.8922
rfemur -71.9738 -7.9164 17.0775
rtibia 37.4604
rfoot -3.92494 -9.15787
rtoes 11.3488
lfemur -42.6272 -0.935595 -18.9487
ltibia 26.9981
lfoot -11.5818 -4.55387
ltoes -12.9378
234
root -0.262665 17.7555 -4.67232 48.6019 25.0587 11.627
lowerback 26.68 3.12652 2.9036
upperback 12.7055 5.36378 9.7512
thorax -1.25841 2.54288 7.63539
lowerneck -16.135 -9.05251 -2.17901
upperneck 14.2614 -10.926 -4.48768
head 6.85469 -5.7239 -2.23358
rclavicle 2.54444e-014 -4.27387e-014
rhumerus 36.3608 10.039 -39.4049
rradius 27.2808
rwrist -8.5607
rhand -25.723 10.0747
rfingers 7.12502
rthumb 0.813243 -19.9035
lclavicle 2.54444e-014 -4.27387e-014
lhumerus -19.9215 -22.3174 98.7901
lradius 68.1393
lwrist 14.2301
lhand -11.3413 30.4994
lfingers 7.12502
lthumb 14.6917 59.9588
rfemur -72.7408 -8.22897 17.2797
rtibia 37.7637
rfoot -3.92443 -8.916
rtoes 10.3946
lfemur -43.0304 -1.05455 -18.8399
ltibia 27.1922
lfoot -11.5244 -4.52602
ltoes -12.7209
235
root -0.299566 17.7456 -4.6143 49.0334 24.7725 11.7158
lowerback 27.206 3.40205 2.61875
upperback 12.916 5.66376 9.79215
thorax -1.33235 2.67174 7.75008
lowerneck -16.1002 -9.17532 -2.15467
upperneck 13.6597 -11.1562 -4.28396
head 6.65982 -5.81903 -2.17124
rclavicle -3.18055e-014 4.4329e-014
rhumerus 37.0969 9.75534 -38.177
rradius 27.6338
rwrist -8.47254
rhand -26.9161 9.85821
rfingers 7.12502
rthumb -0.339035 -20.1213
lclavicle -3.18055e-014 4.4329e-014
lhumerus -19.9488 -22.8038 98.8584
lradius 69.1208
lwrist 14.3184
lhand -11.5322 30.3038
lfingers 7.12502
lthumb 14.5077 59.7766
rfemur -73.2796 -8.12884 17.3672
rtibia 38.0451
rfoot -4.26719 -8.82185
rtoes 13.1602
lfemur -43.1065 -0.779642 -18.839
ltibia 27.347
lfoot -11.5695 -4.56895
ltoes -14.5703
236
root -0.331392 17.7426 -4.56536 49.6522 24.6782 11.8614
lowerback 27.5075 3.57828 2.58961
upperback 13.0805 5.88501 9.84586
thorax -1.32136 2.77199 7.75857
lowerneck -16.0057 -9.32348 -2.16815
upperneck 13.0106 -11.4168 -4.05744
head 6.44425 -5.92974 -2.09433
rclavicle -1.90833e-014 -4.73604e-014
rhumerus 37.7536 9.58232 -36.6678
rradius 28.0995
rwrist -9.01514
rhand -27.2882 9.90704
rfingers 7.12502
rthumb -0.698405 -20.0716
lclavicle -1.90833e-014 -4.73604e-014
lhumerus -19.9258 -23.3326 98.9592
lradius 70.0436
lwrist 14.3781
lhand -11.7904 30.046
lfingers 7.12502
lthumb 14.259 59.5364
rfemur -73.9511 -7.9974 17.311
rtibia 38.3499
rfoot -4.57381 -9.03546
rtoes 14.8908
lfemur -43.4672 -0.549233 -18.8246
ltibia 27.5001
lfoot -11.425 -4.78174
ltoes -16.7456
237
root -0.3575 17.7388 -4.5221 50.452 24.6233 12.1448
lowerback 27.6643 3.67635 2.65935
upperback 13.2024 6.02215 9.86105
thorax -1.2674 2.83701 7.69394
lowerneck -15.8597 -9.44498 -2.09658
upperneck 12.2317 -11.648 -3.9473
head 6.16811 -6.03428 -2.05479
rclavicle -8.26944e-014 2.33572e-014
rhumerus 38.363 9.35812 -35.1326
rradius 28.5887
rwrist -9.74694
rhand -27.3004 10.0951
rfingers 7.12502
rthumb -0.710234 -19.8835
lclavicle -8.26944e-014 2.33572e-014
lhumerus -19.8595 -23.8918 99.0552
lradius 70.9768
lwrist 14.3588
lhand -11.7343 30.0485
lfingers 7.12502
lthumb 14.3131 59.5351
rfemur -74.7619 -7.93996 17.0825
rtibia 38.706
rfoot -4.79657 -9.34563
rtoes 15.1191
lfemur -43.9756 -0.396986 -18.9201
ltibia 27.6514
lfoot -11.1766 -5.05211
ltoes -18.0777
238
root -0.384206 17.7183 -4.47701 51.252 24.5606 12.4426
lowerback 27.8119 3.7789 2.70655
upperback 13.3389 6.1575 9.87128
thorax -1.19326 2.90035 7.6383
lowerneck -15.8286 -9.52162 -1.9857
upperneck 11.4962 -11.816 -3.8805
head 5.92203 -6.11181 -2.0358
rclavicle -8.26944e-014 -6.56983e-014
rhumerus 38.9461 8.87714 -33.9027
rradius 28.9523
rwrist -9.95073
rhand -27.6126 10.226
rfingers 7.12502
rthumb -1.0118 -19.7513
lclavicle -8.26944e-014 -6.56983e-014
lhumerus -19.7768 -24.4934 99.1041
lradius 71.9343
lwrist 14.4021
lhand -11.5714 30.1399
lfingers 7.12502
lthumb 14.47 59.6154
rfemur -75.6803 -7.99947 17.0141
rtibia 39.1777
rfoot -4.93789 -9.47012
rtoes 15.1215
lfemur -44.4431 -0.286516 -18.95
ltibia 27.9283
lfoot -11.0032 -5.37092
ltoes -18.9319
239
root -0.41266 17.6845 -4.42662 52.0235 24.3991 12.7715
lowerback 28.0061 3.91338 2.60006
upperback 13.4732 6.29866 9.85683
thorax -1.15644 2.96141 7.63905
lowerneck -15.8128 -9.62202 -1.97668
upperneck 10.8182 -12.0059 -3.6962
head 5.71112 -6.19529 -1.97125
rclavicle -1.24042e-013 -1.01977e-013
rhumerus 39.5017 8.31524 -32.8521
rradius 29.2439
rwrist -9.97464
rhand -28.1437 10.4733
rfingers 7.12502
rthumb -1.52469 -19.501
lclavicle -1.24042e-013 -1.01977e-013
lhumerus -19.7621 -25.0235 99.1133
lradius 72.8745
lwrist 14.5358
lhand -11.629 29.8513
lfingers 7.12502
lthumb 14.4145 59.3307
rfemur -76.6104 -8.06428 16.9008
rtibia 39.7156
rfoot -4.89775 -9.48645
rtoes 13.756
lfemur -44.8143 -0.423515 -18.8737
ltibia 28.2237
lfoot -10.7254 -5.55144
ltoes -19.0915
240
root -0.423897 17.6349 -4.40394 53.5577 24.4546 13.6867
lowerback 27.6834 3.69737 2.81648
upperback 13.3916 6.0566 9.69953
thorax -1.03328 2.85937 7.41773
lowerneck -15.6457 -9.7481 -1.99374
upperneck 10.1249 -12.2327 -3.46789
head 5.47609 -6.29413 -1.88396
rclavicle -6.36111e-015 -9.54166e-015
rhumerus 40.0466 7.97115 -31.6126
rradius 29.6108
rwrist -10.438
rhand -28.4123 10.7892
rfingers 7.12502
rthumb -1.78416 -19.1831
lclavicle -6.36111e-015 -9.54166e-015
lhumerus -19.8676 -25.5063 99.0805
lradius 73.961
lwrist 14.5871
lhand -11.7194 29.604
lfingers 7.12502
lthumb 14.3274 59.0897
rfemur -78.1998 -8.84057 16.6783
rtibia 40.2856
rfoot -4.71804 -9.41378
rtoes 12.6599
lfemur -45.9645 -1.11443 -19.0486
ltibia 28.5676
lfoot -10.2154 -5.85449
ltoes -18.4958
241
root -0.452199 17.6162 -4.35143 54.0042 24.2685 13.8598
lowerback 28.1223 3.87101 2.73287
upperback 13.5424 6.26763 9.70742
thorax -1.09764 2.95341 7.40022
lowerneck -15.3982 -9.86288 -1.9028
upperneck 9.39803 -12.4568 -3.33623
head 5.20602 -6.39592 -1.83486
rclavicle -1.27222e-014 -5.12864e-014
rhumerus 40.5172 7.48417 -30.3939
rradius 29.8832
rwrist -10.8599
rhand -28.2957 11.2811
rfingers 7.12502
rthumb -1.6715 -18.6921
lclavicle -1.27222e-014 -5.12864e-014
lhumerus -19.9571 -25.9833 99.1586
lradius 74.9249
lwrist 14.4808
lhand -11.7085 29.5673
lfingers 7.12502
lthumb 14.3379 59.0522
rfemur -78.8018 -8.82608 16.6788
rtibia 40.7816
rfoot -4.91608 -9.37399
rtoes 13.5293
lfemur -46.0505 -1.0057 -18.9637
ltibia 28.8426
lfoot -9.928 -6.31514
ltoes -17.7173
242
root -0.474269 17.6052 -4.30716 54.2562 24.4057 13.8058
lowerback 28.6578 3.96384 3.15069
upperback 13.7134 6.50639 9.82064
thorax -1.14268 3.07543 7.20155
lowerneck -15.2753 -9.99832 -1.84268
upperneck 8.77203 -12.6949 -3.20421
head 4.99064 -6.50666 -1.79274
rclavicle -1.59028e-014 5.00937e-014
rhumerus 40.9215 6.84644 -29.138
rradius 30.0384
rwrist -11.1356
rhand -28.467 11.7108
rfingers 7.12502
rthumb -1.83696 -18.261
lclavicle -1.59028e-014 5.00937e-014
lhumerus -19.8498 -26.4093 99.3513
lradius 75.4328
lwrist 14.3179
lhand -11.6105 29.2689
lfingers 7.12502
lthumb 14.4323 58.747
rfemur -79.216 -8.78768 17.0219
rtibia 41.1769
rfoot -5.15801 -9.41288
rtoes 14.8817
lfemur -45.9916 -1.08133 -18.3583
ltibia 28.9981
lfoot -9.53208 -6.64449
ltoes -17.3343
